<?xml version="1.0" standalone="no"?>
<!DOCTYPE svg PUBLIC "-//W3C//DTD SVG 20010904//EN"
 "http://www.w3.org/TR/2001/REC-SVG-20010904/DTD/svg10.dtd">
<svg version="1.0" xmlns="http://www.w3.org/2000/svg"
 width="750.000000pt" height="500.000000pt" viewBox="0 0 750.000000 500.000000"
 preserveAspectRatio="xMidYMid meet">

<g transform="translate(0.000000,500.000000) scale(0.100000,-0.100000)"
fill="#000000" stroke="none">
<path d="M2265 3501 c-56 -5 -35 -7 110 -13 99 -4 227 -15 285 -24 410 -62
765 -240 940 -472 89 -118 90 -125 90 -488 l0 -315 -105 89 c-517 439 -1201
735 -1887 818 -74 9 -139 21 -146 29 -18 17 8 35 223 160 258 149 264 151
-182 -49 -155 -69 -285 -126 -289 -126 -16 0 -124 -54 -124 -62 0 -5 3 -7 8
-4 13 8 331 -12 462 -29 320 -42 662 -133 962 -256 260 -107 628 -312 628
-350 0 -29 -27 -24 -136 27 -203 95 -495 200 -734 263 -398 105 -756 153
-1152 155 l-247 1 -41 -40 c-22 -21 -40 -42 -40 -45 0 -3 64 -1 143 3 171 10
498 -6 713 -33 478 -62 934 -194 1342 -390 153 -74 182 -96 152 -115 -6 -4
-79 14 -163 39 -519 155 -1003 226 -1543 226 -341 0 -562 -18 -827 -66 -86
-16 -88 -17 -112 -58 -14 -24 -25 -45 -25 -48 0 -2 48 6 108 18 557 119 1319
101 1982 -47 236 -52 486 -125 494 -144 13 -35 -9 -36 -195 -11 -599 82 -1015
110 -1509 103 -450 -6 -633 -26 -893 -94 l-98 -26 -25 -50 c-14 -27 -24 -51
-22 -53 2 -2 33 6 68 17 385 120 1104 151 1905 84 336 -29 915 -103 915 -117
0 -4 -6 -8 -12 -8 -7 0 -661 -67 -1452 -150 -1353 -141 -1441 -151 -1463 -172
-29 -27 -38 -77 -23 -122 14 -42 35 -56 84 -56 33 0 2766 282 2862 295 39 5
42 4 66 -32 119 -177 350 -254 543 -182 88 33 166 90 215 158 43 59 47 62 80
56 19 -2 472 -50 1005 -105 1046 -108 1139 -118 1495 -156 129 -14 276 -28
327 -31 l92 -6 21 34 c28 45 22 111 -12 145 -23 24 -46 27 -838 109 -1459 152
-1964 205 -2027 211 -35 4 -63 10 -63 14 0 7 56 15 405 60 1012 129 1943 118
2415 -29 35 -11 66 -19 68 -17 2 2 -8 26 -22 54 -25 49 -26 50 -103 70 -304
80 -479 97 -1008 97 -274 0 -500 -5 -600 -13 -228 -19 -600 -59 -810 -87 -142
-19 -182 -22 -192 -12 -21 21 -1 34 102 65 761 234 1690 292 2368 148 59 -12
107 -19 107 -14 0 5 -11 26 -24 47 -23 36 -29 39 -108 54 -108 21 -283 44
-433 57 -155 13 -601 13 -775 0 -397 -30 -870 -119 -1213 -230 -100 -32 -127
-33 -127 -5 0 26 285 160 535 252 511 186 1194 294 1683 266 78 -4 142 -6 142
-3 0 3 -18 24 -40 45 l-41 40 -242 -1 c-311 -1 -565 -27 -877 -90 -340 -68
-727 -194 -1031 -336 -97 -46 -119 -49 -119 -19 0 33 340 226 580 329 438 187
920 294 1372 304 64 2 115 4 113 6 -2 2 -173 82 -380 178 -207 95 -382 177
-388 180 -8 5 -9 4 -2 -3 6 -6 87 -59 180 -118 184 -117 225 -149 210 -164 -6
-5 -68 -16 -140 -25 -453 -57 -906 -203 -1302 -418 -219 -118 -502 -317 -671
-472 l-23 -20 3 329 3 330 29 55 c84 161 242 297 469 405 247 118 478 169 823
184 l169 7 -138 8 c-590 36 -1172 -188 -1379 -529 -18 -30 -35 -55 -38 -55 -3
0 -16 21 -30 48 -37 69 -181 211 -285 278 -305 198 -731 291 -1170 255z m1639
-1359 c25 -9 65 -31 89 -48 37 -27 46 -40 57 -82 17 -75 6 -107 -60 -173 -47
-47 -68 -61 -124 -78 -81 -25 -144 -27 -216 -5 -87 26 -156 79 -191 146 -23
45 -24 61 -4 120 23 65 97 115 205 138 61 12 191 3 244 -18z"/>
</g>
</svg>
